<svg role="img" viewBox="0 0 24 24" xmlns="http://www.w3.org/2000/svg"><title>Airtable</title><path d="M12 0C5.352 0 0 5.352 0 12s5.352 12 12 12 12-5.352 12-12S18.648 0 12 0Zm2.63 8.703a.612.612 0 0 1 .562.388c.03.079.045.163.04.247a.632.632 0 0 1-.176.46.61.61 0 0 1-.457.182.623.623 0 0 1-.6-.393.621.621 0 0 1-.043-.25.612.612 0 0 1 .643-.634h.031zm-2.36 1.465c.471 0 .826.18 1.065.54.239.36.359.857.359 1.493 0 .659-.124 1.172-.37 1.54-.248.367-.607.55-1.08.55a1.32 1.32 0 0 1-.666-.16 1.136 1.136 0 0 1-.448-.501 2.108 2.108 0 0 1-.144-.4h-.041v2.067H9.817v-5.02h.963l.147 1.053h.036c.081-.354.208-.621.38-.8.234-.24.542-.362.926-.362z"/></svg>
