<svg role="img" viewBox="0 0 24 24" xmlns="http://www.w3.org/2000/svg"><title>Zapier</title><path d="M12 0C5.352 0 0 5.352 0 12s5.352 12 12 12 12-5.352 12-12S18.648 0 12 0Zm2.63 8.703a.612.612 0 0 1 .562.388c.03.079.045.163.04.247a.632.632 0 0 1-.176.46.61.61 0 0 1-.457.182.623.623 0 0 1-.6-.393.621.621 0 0 1-.043-.25.612.612 0 0 1 .643-.634h.031zm-2.36 1.465c.471 0 .826.18 1.065.54.239.36.359.857.359 1.493 0 .659-.124 1.172-.37 1.54-.248.367-.607.55-1.08.55a1.32 1.32 0 0 1-.666-.16 1.136 1.136 0 0 1-.448-.501 2.108 2.108 0 0 1-.144-.4h-.041v2.067H9.817v-5.02h.963l.147 1.053h.036c.081-.354.208-.621.38-.8.234-.24.542-.362.926-.362zm5.225 0c.4 0 .733.078.996.235.258.15.464.376.591.646.137.297.204.62.198.947v.242c0 .075-.006.167-.017.277h-2.66c.03.234.098.416.208.542.15.176.379.264.686.264.258 0 .441-.055.551-.165a.899.899 0 0 0 .229-.395l.971.272c-.063.23-.168.446-.308.638-.148.195-.344.35-.568.448-.24.11-.537.165-.893.165-.412 0-.767-.087-1.066-.26a1.75 1.75 0 0 1-.692-.728 2.37 2.37 0 0 1-.242-1.103c0-.631.178-1.126.534-1.486.357-.359.85-.539 1.482-.539zm-9.793.017c.592 0 1.02.137 1.283.411.263.275.395.662.395 1.161v2.417h-.955l-.145-.954h-.038a1.621 1.621 0 0"/></svg>
